FFmpeg version SVN-r25716, Copyright (c) 2000-2010 the FFmpeg developers  built on Nov 10 2010 12:23:18 with gcc 4.1.2 20080704 (Red Hat 4.1.2-48)  configuration: --enable-libmp3lame --enable-shared --disable-mmx --arch=x86_64  libavutil     50.33. 0 / 50.33. 0  libavcore      0.12. 1 /  0.12. 1  libavcodec    52.94. 4 / 52.94. 4  libavformat   52.84. 0 / 52.84. 0  libavdevice   52. 2. 2 / 52. 2. 2  libavfilter    1.59. 0 /  1.59. 0  libswscale     0.12. 0 /  0.12. 0Seems stream 0 codec frame rate differs from container frame rate: 600.00 (600/1) -> 6.00 (6/1)Input #0, mov,mp4,m4a,3gp,3g2,mj2, from '/RAID10/data/converted_video_files/28781.mov':  Metadata:    major_brand     : qt      minor_version   : 537199360    compatible_brands: qt    Duration: 00:00:12.16, start: 0.000000, bitrate: 727 kb/s    Stream #0.0(eng): Video: mjpeg, gray, 520x150 [PAR 1:1 DAR 52:15], 726 kb/s, 6 fps, 6 tbr, 600 tbn, 600 tbc[buffer @ 0x11ab4d0] w:520 h:150 pixfmt:gray[ffsink @ 0x119e540] auto-inserting filter 'auto-inserted scaler 0' between the filter 'src' and the filter 'out'[scale @ 0x119e830] w:520 h:150 fmt:gray -> w:520 h:150 fmt:yuv420p flags:0x4Output #0, flv, to '/RAID10/data/converted_video_files/28781.flv':  Metadata:    encoder         : Lavf52.84.0    Stream #0.0(eng): Video: flv, yuv420p, 520x150 [PAR 1:1 DAR 52:15], q=2-31, 600 kb/s, 1k tbn, 24 tbcStream mapping:  Stream #0.0 -> #0.0Press [q] to stop encodingframe=   73 fps=  0 q=5.8 Lsize=     515kB time=12.04 bitrate= 350.6kbits/s    video:514kB audio:0kB global headers:0kB muxing overhead 0.261778%